name Walk8.mot
datacolumns 19
datarows 17
range 4.77500000 4.85500000
endheader

                time	   L_ground_force_vx	   L_ground_force_vy	   L_ground_force_vz	   L_ground_force_px	   L_ground_force_py	   L_ground_force_pz	   R_ground_force_vx	   R_ground_force_vy	   R_ground_force_vz	   R_ground_force_px	   R_ground_force_py	   R_ground_force_pz	   L_ground_torque_x	   L_ground_torque_y	   L_ground_torque_z	   R_ground_torque_x	   R_ground_torque_y	   R_ground_torque_z	
          4.77500000	          0.00000000	          0.00000000	          0.00000000	          0.00000000	          0.00000000	          0.00000000	         38.15039042	        281.73928473	          3.57442319	          0.18687926	          0.00000000	          0.14663897	          0.00000000	         -0.00000000	          0.00000000	          0.00000000	         -9.58113118	          0.00000000	
          4.78000000	          0.00000000	          0.00000000	          0.00000000	         -0.00000000	          0.00000000	         -0.00000000	         30.31742756	        236.58460299	          4.17885232	          0.18764082	          0.00000000	          0.14402132	          0.00000000	         -0.00000000	          0.00000000	          0.00000000	         -8.53258737	          0.00000000	
          4.78500000	          0.00000000	          0.00000000	          0.00000000	         -0.00000000	          0.00000000	         -0.00000000	         22.81197040	        194.55420636	          4.34883018	          0.18719360	          0.00000000	          0.14040253	          0.00000000	          0.00000000	          0.00000000	          0.00000000	         -7.43772865	          0.00000000	
          4.79000000	          0.00000000	          0.00000000	          0.00000000	         -0.00000000	          0.00000000	         -0.00000000	         15.85171553	        156.32684683	          4.18633049	          0.18503720	          0.00000000	          0.13554664	          0.00000000	          0.00000000	          0.00000000	          0.00000000	         -6.33041013	          0.00000000	
          4.79500000	          0.00000000	          0.00000000	          0.00000000	         -0.00000000	          0.00000000	         -0.00000000	          9.64784908	        122.39806493	          3.79732243	          0.18061271	          0.00000000	          0.12922309	          0.00000000	          0.00000000	          0.00000000	          0.00000000	         -5.24662685	          0.00000000	
          4.80000000	          0.00000000	          0.00000000	          0.00000000	         -0.00000000	          0.00000000	         -0.00000000	          4.38514505	         93.02391969	          3.27921057	          0.17336106	          0.00000000	          0.12122912	          0.00000000	          0.00000000	          0.00000000	          0.00000000	         -4.22092404	          0.00000000	
          4.80500000	          0.00000000	          0.00000000	          0.00000000	         -0.00000000	          0.00000000	         -0.00000000	          0.19825082	         68.20658939	          2.70999269	          0.16282666	          0.00000000	          0.11142508	          0.00000000	          0.00000000	          0.00000000	          0.00000000	         -3.28268583	          0.00000000	
          4.81000000	          0.00000000	          0.00000000	          0.00000000	         -0.00000000	          0.00000000	         -0.00000000	         -2.85034954	         47.73229420	          2.14424188	          0.14878105	          0.00000000	          0.09978392	          0.00000000	          0.00000000	          0.00000000	          0.00000000	         -2.45320034	          0.00000000	
          4.81500000	          0.00000000	          0.00000000	          0.00000000	         -0.00000000	          0.00000000	         -0.00000000	         -4.78620729	         31.24955076	          1.61715925	          0.13135544	          0.00000000	          0.08647422	          0.00000000	          0.00000000	          0.00000000	          0.00000000	         -1.74430184	          0.00000000	
          4.82000000	         -0.00000000	          0.00000000	          0.00000000	         -0.00000000	          0.00000000	         -0.00000000	         -5.73138840	         18.35659198	          1.15221695	          0.11122486	          0.00000000	          0.07196621	          0.00000000	          0.00000000	          0.00000000	          0.00000000	         -1.15865340	          0.00000000	
          4.82500000	         -0.00000000	         -0.00000000	          0.00000000	         -0.00000000	          0.00000000	         -0.00000000	         -5.89776092	          8.65917983	          0.76295200	          0.08979120	          0.00000000	          0.05713292	          0.00000000	          0.00000000	          0.00000000	          0.00000000	         -0.69267078	          0.00000000	
          4.83000000	         -0.00000000	         -0.00000000	          0.00000000	         -0.00000000	          0.00000000	         -0.00000000	         -5.53822416	          1.75591652	          0.45298250	          0.06895002	          0.00000000	          0.04310516	          0.00000000	          0.00000000	          0.00000000	          0.00000000	         -0.33908383	          0.00000000	
          4.83500000	         -0.00000000	         -0.00000000	         -0.00000000	         -0.00000000	          0.00000000	         -0.00000000	         -4.86965364	         -2.80988428	          0.21837962	          0.05013187	          0.00000000	          0.03070033	          0.00000000	          0.00000000	          0.00000000	          0.00000000	         -0.08551794	          0.00000000	
          4.84000000	         -0.00000000	         -0.00000000	         -0.00000000	         -0.00000000	          0.00000000	         -0.00000000	         -4.05578160	         -5.51561601	          0.05066216	          0.03409933	          0.00000000	          0.02031733	          0.00000000	          0.00000000	          0.00000000	          0.00000000	          0.08385239	          0.00000000	
          4.84500000	         -0.00000000	         -0.00000000	         -0.00000000	         -0.00000000	          0.00000000	         -0.00000000	         -3.21309793	         -6.81453082	         -0.06089857	          0.02112113	          0.00000000	          0.01205205	          0.00000000	          0.00000000	          0.00000000	          0.00000000	          0.18583459	          0.00000000	
          4.85000000	         -0.00000000	         -0.00000000	         -0.00000000	          0.00000000	          0.00000000	          0.00000000	         -2.41858403	         -7.10855273	         -0.12762396	          0.01112803	          0.00000000	          0.00579852	          0.00000000	          0.00000000	          0.00000000	          0.00000000	          0.23653653	          0.00000000	
          4.85500000	         -0.00000000	         -0.00000000	         -0.00000000	          0.00000000	          0.00000000	          0.00000000	         -1.71779690	         -6.73490272	         -0.16032015	          0.00383956	          0.00000000	          0.00132966	          0.00000000	         -0.00000000	          0.00000000	          0.00000000	          0.25034353	          0.00000000	
